<?xml version="1.0" encoding="UTF-8"?><svg id="a" xmlns="http://www.w3.org/2000/svg" viewBox="0 0 1077.61 926.02"><path d="M621.26,153.73l-3.45,58.89s7.96,5.04,13.79.8c5.84-4.24-1.59-13.26,6.37-23.87s6.37-40.58,4.77-43.5c-1.59-2.92-21.49,7.69-21.49,7.69h.01Z" style="fill:#fff;"/><path d="M641.43,142.35c-5.33,0-18.99,7.14-21.67,8.57-.98.52-1.61,1.52-1.68,2.62l-3.45,58.89c-.07,1.15.5,2.26,1.47,2.88.48.31,4.87,2.99,10.01,2.99,2.77,0,5.25-.78,7.36-2.31,4.05-2.95,3.88-7.35,3.73-11.24-.16-4.16-.32-8.46,3.31-13.3,8.64-11.53,7.17-42.99,5.02-46.93-.44-.81-1.56-2.17-4.11-2.17h.01ZM635.42,187.63c-4.99,6.65-4.75,12.84-4.58,17.36.14,3.63.08,4.98-1.12,5.85-1.01.73-2.19,1.09-3.61,1.09-1.89,0-3.75-.64-5.01-1.19l3.22-55.03c5.86-3.03,12.65-6.05,15.89-6.81,1.08,6.71,1.56,30.25-4.8,38.73h.01Z"/><path d="M1060.78,250.55c-5.04-16.98-13-40.32-24.93-71.09-11.94-30.77-55.44-93.37-66.58-113.26s-31.83-37.4-39.26-40.58-51.72-17.77-62.07-19.1c-10.34-1.33-28.38-4.77-42.97-2.65-14.59,2.12-15.65,10.88-21.75,16.18-6.1,5.3-22.28,32.1-22.28,41.91s12.2,17.77,12.2,17.77c3.18,7.43,21.75,7.43,21.75,7.43,6.9,7.43,29.18.53,29.18.53,0,0,1.33,2.65,12.2,6.37,10.88,3.71,25.99-.27,30.24-5.84,4.24-5.57,15.92-4.51,15.92-4.51,0,0,6.9,10.08,15.65,23.61s18.57,37.67,13,64.46,8.49,78.78,8.49,78.78c0,0-34.75-1.59-63.93,4.51s-56.23,23.87-56.23,23.87c0,0-32.36-14.59-64.19-11.41s-48.54,24.93-48.54,24.93c-17.51.27-47.21,9.02-47.21,9.02,0,0-7.43-10.34-17.51-15.65-10.08-5.3-27.85-10.88-27.85-10.88l3.18-39.26-78.51.53-78.51-.53,3.18,39.26s-17.77,5.57-27.85,10.88c-10.08,5.31-17.51,15.65-17.51,15.65,0,0-29.71-8.75-47.21-9.02,0,0-16.71-21.75-48.54-24.93-31.83-3.18-64.19,11.41-64.19,11.41,0,0-27.06-17.77-56.23-23.87-29.18-6.1-63.93-4.51-63.93-4.51,0,0,14.06-51.99,8.49-78.78-5.57-26.79,4.24-50.93,13-64.46,8.75-13.53,15.65-23.61,15.65-23.61,0,0,11.67-1.06,15.92,4.51,4.24,5.57,19.36,9.55,30.24,5.84,10.88-3.71,12.2-6.37,12.2-6.37,0,0,22.28,6.9,29.18-.53,0,0,18.57,0,21.75-7.43,0,0,12.2-7.96,12.2-17.77s-16.18-36.6-22.28-41.91c-6.1-5.31-7.16-14.06-21.75-16.18s-32.63,1.33-42.97,2.65c-10.34,1.33-54.64,15.92-62.07,19.1-7.43,3.18-28.12,20.69-39.26,40.58-11.14,19.89-54.64,82.49-66.58,113.26-11.94,30.77-19.89,54.11-24.93,71.09-5.04,16.98-4.51,33.95-6.37,36.87-1.86,2.92-10.61,14.06-5.84,36.34s12.47,20.42,29.44,25.99c16.97,5.57,76.66,48.28,105.04,73.74,28.38,25.46,100.26,5.3,100.26,5.3,0,0-16.71,60.74,58.62,124.67,0,0-13.53,19.36,35.81,75.07,0,0-6.1,16.98,15.92,47.48,22.02,30.5,25.2,33.69,25.2,48.81s-3.98,32.36-3.98,32.36c0,0-12.2,20.16-13.79,43.24s14.32,50.66,14.32,50.66c0,0,40.85,37.93,80.11,38.99s87.27-1.59,87.27-1.59c0,0,48.01,2.65,87.27,1.59s80.11-38.99,80.11-38.99c0,0,15.92-27.59,14.32-50.66-1.59-23.08-13.79-43.24-13.79-43.24,0,0-3.98-17.24-3.98-32.36s3.18-18.3,25.2-48.81c22.02-30.5,15.92-47.48,15.92-47.48,49.34-55.7,35.81-75.07,35.81-75.07,75.33-63.93,58.62-124.67,58.62-124.67,0,0,71.88,20.16,100.26-5.3s88.06-68.17,105.04-73.74c16.98-5.57,24.67-3.71,29.44-25.99,4.77-22.28-3.98-33.42-5.84-36.34s-1.33-19.89-6.37-36.87h-.02Z" style="fill:#fff;"/><path d="M1069.88,285.79c-.43-.91-.83-4.84-1.18-8.31-.76-7.38-1.79-17.49-4.86-27.84-5.75-19.35-14.16-43.35-25.02-71.33-8.34-21.5-31.84-58.27-49-85.12-7.7-12.04-14.35-22.44-17.76-28.55-11.67-20.84-33.06-38.65-40.78-41.95-7.62-3.27-52.37-17.98-62.92-19.33-1.7-.22-3.62-.5-5.7-.8-7.89-1.14-17.7-2.56-27.41-2.56-3.89,0-7.5.24-10.73.71-11.65,1.7-15.92,7.51-19.35,12.18-1.3,1.77-2.52,3.44-4.03,4.75-6.6,5.74-23.38,33.39-23.38,44.31,0,9.99,10.04,17.88,12.91,19.93,4.14,7.28,17.92,8.31,22.96,8.44,2.8,2.3,7.01,3.46,12.55,3.46,6.64,0,13.68-1.65,16.97-2.52,1.9,1.53,5.45,3.53,12.11,5.81,3.14,1.07,6.67,1.62,10.48,1.62,9.74,0,19.55-3.59,23.32-8.54,1.59-2.09,5.75-3.34,11.12-3.34h.53c2.14,3.15,7.89,11.68,14.71,22.23,4.52,6.99,18.78,32.11,12.55,62.08-4.8,23.07,4.24,63.12,7.47,76.12-1.72-.03-3.91-.06-6.49-.06-11.64,0-34.13.62-53.95,4.76-25.92,5.42-49.78,19.59-55.87,23.4-6.22-2.59-29.35-11.45-54.52-11.45-3.31,0-6.57.16-9.69.47-28.83,2.88-45.61,20.16-49.75,24.96-15.22.59-37.55,6.56-44.49,8.51-2.7-3.34-9.1-10.54-17.22-14.81-8.08-4.26-20.69-8.58-25.96-10.31l2.98-36.74c.07-.89-.23-1.77-.84-2.42-.61-.66-1.4-1.02-2.35-1.02l-78.47.53-78.51-.53h-.02c-.88,0-1.73.37-2.33,1.02-.61.65-.91,1.53-.84,2.42l2.98,36.74c-5.27,1.73-17.87,6.06-25.96,10.31-8.13,4.28-14.52,11.47-17.22,14.81-6.94-1.95-29.26-7.92-44.49-8.51-4.14-4.79-20.93-22.08-49.75-24.96-3.12-.31-6.38-.47-9.69-.47-25.18,0-48.3,8.86-54.52,11.45-6.09-3.81-29.95-17.98-55.87-23.4-19.82-4.15-42.31-4.76-53.95-4.76-2.58,0-4.77.03-6.49.06,3.23-13,12.27-53.05,7.47-76.12-6.23-29.97,8.03-55.09,12.55-62.08,6.83-10.55,12.58-19.08,14.71-22.23h.53c5.37,0,9.53,1.25,11.12,3.34,3.77,4.95,13.58,8.54,23.32,8.54,3.81,0,7.34-.54,10.48-1.62,6.65-2.27,10.21-4.28,12.11-5.81,3.28.88,10.32,2.52,16.96,2.52,5.53,0,9.74-1.16,12.55-3.46,5.04-.13,18.82-1.16,22.96-8.44,2.87-2.05,12.91-9.94,12.91-19.93,0-10.92-16.77-38.57-23.38-44.31-1.51-1.31-2.74-2.98-4.03-4.75-3.43-4.67-7.69-10.48-19.35-12.18C249.84.24,246.23,0,242.34,0,232.64,0,222.82,1.42,214.93,2.56c-2.08.3-3.99.58-5.7.8-10.55,1.35-55.29,16.06-62.92,19.33-7.72,3.31-29.11,21.12-40.78,41.95-3.42,6.11-10.07,16.51-17.77,28.55-17.16,26.85-40.66,63.62-49,85.12-10.86,27.98-19.27,51.98-25.02,71.33-3.07,10.35-4.11,20.46-4.86,27.84-.36,3.47-.76,7.4-1.14,8.22l-.39.6c-2.63,3.94-10.63,15.93-5.87,38.12,4.41,20.56,11.84,22.66,24.17,26.14,2.21.62,4.72,1.33,7.39,2.21,16.75,5.5,76.23,48.25,103.91,73.08,10.13,9.09,26.26,13.69,47.95,13.69s41.31-4.25,50.4-6.44c-.9,6.51-1.61,18.79,2,34.74,4.81,21.28,18.58,53.42,56.77,86.46-2.51,7.27-4.06,29.18,36.22,75.07-1.04,5.51-1.98,22.43,16.82,48.48l4.6,6.36c17.72,24.47,19.99,27.61,19.99,40.58s-3.17,28.34-3.79,31.18c-1.9,3.26-12.46,22.29-13.97,44.2-1.64,23.77,14.07,51.31,14.74,52.47.16.28.36.53.59.74,1.71,1.58,42.19,38.76,82.19,39.84,6.17.17,12.96.25,20.17.25,32.28,0,64.51-1.69,67.18-1.84,2.67.14,34.91,1.84,67.18,1.84,7.21,0,14-.08,20.17-.25,40-1.08,80.48-38.26,82.19-39.84.23-.22.43-.47.59-.74.67-1.16,16.38-28.7,14.74-52.47-1.51-21.91-12.08-40.94-13.97-44.2-.62-2.84-3.79-17.97-3.79-31.18s2.28-16.11,19.99-40.58l4.6-6.36c18.8-26.05,17.86-42.97,16.82-48.48,40.28-45.9,38.73-67.8,36.22-75.07,38.19-33.04,51.96-65.18,56.77-86.46,3.61-15.96,2.9-28.24,2-34.74,9.09,2.18,29.48,6.44,50.4,6.44h0c21.68,0,37.81-4.61,47.94-13.69,27.67-24.83,87.16-67.59,103.91-73.08,2.68-.88,5.18-1.59,7.39-2.21,12.32-3.48,19.76-5.58,24.17-26.14,4.75-22.19-3.25-34.18-5.87-38.12l-.34-.51h-.04ZM1069.88,323.09c-3.6,16.81-7.98,18.05-19.67,21.35-2.27.64-4.84,1.37-7.65,2.29-17.7,5.81-77.46,48.63-106.17,74.39-8.92,8-23.62,12.06-43.69,12.06h0c-26.66,0-53.32-7.38-53.59-7.46-1.11-.31-2.29,0-3.11.81-.81.81-1.13,1.99-.82,3.1.16.59,15.33,59.5-57.61,121.4-1.25,1.06-1.54,2.83-.6,4.17.11.18,10.76,18.94-35.53,71.21-.75.85-.99,2.07-.62,3.15.05.16,5.04,16.13-15.49,44.57l-4.6,6.36c-17.96,24.81-21.2,29.28-21.2,44.31s3.89,32.36,4.06,33.08c.08.33.2.64.38.93.12.19,11.82,19.75,13.34,41.8,1.4,20.32-11.74,44.94-13.67,48.44-4.08,3.66-41.99,36.85-77.67,37.82-6.12.16-12.85.25-20,.25-33.35,0-66.67-1.82-67.01-1.84h-.36c-.33.02-33.65,1.84-67.01,1.84-7.15,0-13.88-.08-20-.25-35.68-.97-73.59-34.15-77.67-37.82-1.93-3.5-15.07-28.11-13.67-48.44,1.52-21.99,13.22-41.61,13.34-41.81.17-.29.3-.6.38-.93.16-.72,4.06-17.77,4.06-33.08s-3.24-19.5-21.2-44.31l-4.6-6.36c-20.53-28.44-15.54-44.42-15.5-44.54.39-1.1.16-2.32-.61-3.19-46.3-52.27-35.65-71.02-35.58-71.13.94-1.35.7-3.19-.55-4.25-72.72-61.71-57.77-120.82-57.61-121.4.3-1.11,0-2.29-.82-3.1-.81-.81-2-1.12-3.1-.81-.27.07-26.89,7.46-53.58,7.46-20.07,0-34.77-4.06-43.7-12.06-28.71-25.76-88.47-68.59-106.17-74.39-2.8-.92-5.38-1.65-7.65-2.29-11.7-3.3-16.07-4.54-19.68-21.35-4.19-19.56,2.68-29.87,4.94-33.25.18-.27.34-.51.47-.71,1.11-1.75,1.45-4.63,2.1-10.99.73-7.13,1.73-16.9,4.63-26.68,5.69-19.18,14.06-43.02,24.85-70.84,8.11-20.91,31.42-57.37,48.43-83.99,7.75-12.13,14.45-22.6,17.96-28.87,11.2-20,31.53-36.55,37.73-39.21,7.3-3.13,51.36-17.6,61.22-18.87,1.74-.22,3.69-.5,5.8-.81,7.69-1.11,17.25-2.49,26.5-2.49,3.59,0,6.89.21,9.81.64,9.02,1.31,11.85,5.17,15.13,9.64,1.45,1.97,2.94,4.01,4.99,5.79,5.38,4.68,21.19,30.86,21.19,39.51,0,6.6-7.77,13.14-10.76,15.11-.53.34-.94.83-1.19,1.41-1.6,3.74-12.18,5.49-18.83,5.5-.88,0-1.73.37-2.33,1.02-1.47,1.59-4.57,2.43-8.95,2.43-7.88,0-16.87-2.74-16.96-2.77-1.37-.42-2.84.12-3.6,1.3-.27.28-2.41,2.31-10.56,5.1-2.48.85-5.31,1.27-8.42,1.27-8.44,0-16.05-3.13-18.25-6.03-3.87-5.09-11.8-5.84-16.18-5.84-1.48,0-2.45.08-2.55.09-.94.09-1.8.59-2.34,1.37-.07.1-7.02,10.27-15.7,23.68-6.22,9.61-19.98,35.37-13.44,66.83,5.35,25.73-8.31,76.79-8.44,77.3-.26.98-.05,2.03.59,2.82.64.79,1.61,1.21,2.63,1.19.04,0,4.1-.18,10.48-.18,11.39,0,33.38.6,52.65,4.63,28.22,5.9,54.87,23.24,55.14,23.42.91.6,2.06.69,3.05.24.26-.11,26.05-11.58,53.51-11.58,3.1,0,6.15.15,9.06.44,29.99,3,46.18,23.5,46.33,23.71.59.77,1.5,1.23,2.48,1.24,16.87.25,46.07,8.8,46.36,8.89,1.3.38,2.7-.1,3.49-1.2.07-.1,7.09-9.79,16.4-14.69,9.7-5.11,27.15-10.6,27.32-10.65,1.42-.44,2.34-1.81,2.22-3.29l-2.9-35.79,75.08.51,75.04-.51-2.9,35.79c-.12,1.48.8,2.85,2.22,3.29.18.06,17.62,5.55,27.32,10.65,9.27,4.88,16.33,14.59,16.4,14.69.79,1.1,2.19,1.58,3.48,1.2.29-.09,29.5-8.63,46.36-8.89.97-.02,1.88-.47,2.48-1.24.16-.21,16.22-20.7,46.33-23.71,2.91-.29,5.96-.44,9.06-.44,27.45,0,53.25,11.46,53.51,11.58.99.45,2.14.36,3.05-.24.27-.17,26.92-17.52,55.14-23.42,19.26-4.03,41.25-4.63,52.65-4.63,6.38,0,10.44.18,10.48.18,1,0,1.99-.4,2.63-1.19.64-.79.86-1.84.59-2.82-.14-.51-13.79-51.57-8.44-77.3,6.54-31.46-7.22-57.22-13.44-66.83-8.67-13.41-15.62-23.57-15.69-23.67-.54-.78-1.39-1.29-2.34-1.37-.11,0-1.08-.09-2.55-.09-4.38,0-12.31.76-16.18,5.84-2.21,2.9-9.82,6.03-18.26,6.03-3.11,0-5.94-.43-8.42-1.27-8.15-2.78-10.3-4.82-10.57-5.1-.77-1.18-2.23-1.72-3.61-1.3-.09.03-9.05,2.77-16.96,2.77-4.38,0-7.47-.84-8.95-2.43-.6-.65-1.45-1.01-2.33-1.02-6.65,0-17.23-1.76-18.83-5.5-.25-.58-.66-1.07-1.19-1.41-2.99-1.95-10.76-8.47-10.76-15.11,0-8.65,15.81-34.83,21.19-39.51,2.05-1.78,3.54-3.82,4.99-5.79,3.28-4.47,6.11-8.33,15.13-9.64,2.92-.43,6.22-.64,9.81-.64,9.24,0,18.81,1.38,26.5,2.49,2.11.3,4.06.59,5.8.81,9.86,1.26,53.92,15.74,61.22,18.87,6.21,2.66,26.53,19.21,37.73,39.21,3.51,6.27,10.2,16.74,17.96,28.87,17.02,26.62,40.32,63.09,48.43,83.99,10.79,27.82,19.15,51.65,24.85,70.84,2.9,9.78,3.9,19.55,4.63,26.68.65,6.36.99,9.24,2.1,10.99.13.2.28.44.47.71,2.26,3.39,9.14,13.69,4.94,33.26h0Z"/><path d="M161.71,74.56c-5.84-5.44-8.75-19.76-8.75-19.76,0,0-4.91,12.07.8,20.03,5.7,7.96,12.33,10.08,20.03,10.48,7.69.4,5.3-4.38,5.3-4.38,0,0-11.54-.93-17.37-6.37h-.01Z"/><path d="M226.43,46.7c-1.99-2.65-2.92-9.68-2.92-9.68,0,0-3.05,5.57-.66,10.34s5.7,9.15,6.9,17.37c1.19,8.22,2.25,21.22.4,24.8-1.86,3.58,7.03-.66,7.03-.66,0,0-1.72-19.23-2.12-23.74s-6.63-15.78-8.62-18.44h0Z"/><path d="M250.87,40.78c-2.33-2.54-4.21-9.83-4.21-9.83,0,0-2.27,6.26.75,10.99,3.02,4.72,6.9,8.91,9.21,17.42,2.3,8.51,5.13,22.07,3.77,26.08-1.35,4.01,6.88-1.6,6.88-1.6,0,0-4.33-20.04-5.34-24.74-1.01-4.7-8.73-15.78-11.06-18.32Z"/><path d="M268.64,33.45c-2.57-2.3-5.16-9.37-5.16-9.37,0,0-1.64,6.45,1.82,10.86,3.47,4.41,7.74,8.19,10.87,16.44,3.13,8.24,7.26,21.46,6.31,25.59-.95,4.12,6.69-2.27,6.69-2.27,0,0-6.27-19.52-7.74-24.1-1.46-4.58-10.23-14.85-12.8-17.15h0Z"/><path d="M201.63,56.78s-9.28,1.33-12.73,5.44c-3.45,4.11-2.25,7.16-2.25,7.16l-5.44-7.03s3.32,6.1-.13,9.55-15.25,8.89-23.47.4c0,0,1.72,9.42,12.86,10.74,11.14,1.33,20.42,1.99,20.42,1.99,0,0-5.17-5.97-3.71-8.49,1.46-2.52,3.98-7.29,10.74-5.44,6.76,1.86,8.49,3.45,8.49,3.45l-5.31-5.04s5.97-8.49,8.09-9.81c0,0-9.95,1.46-12.73,3.45,0,0,5.17-6.37,5.17-6.37Z"/><path d="M214.5,25.82c-6.07-2.88-12.23.1-12.23.1,7.96-2.69,17.9,7.56,17.9,7.56,0,0,.4-4.77-5.67-7.66Z"/><path d="M233.99,17.86c-6.07-2.88-12.23.1-12.23.1,7.96-2.69,17.9,7.56,17.9,7.56,0,0,.4-4.77-5.67-7.66Z"/><path d="M252.2,9.01c-6.07-2.88-12.23.1-12.23.1,7.96-2.69,17.9,7.56,17.9,7.56,0,0,.4-4.77-5.67-7.66Z"/><path d="M159.09,78.73s-14.42,16.31-21.88,31.33c0,0,24.97-28.95,25.17-29.44.2-.5,4.38.4,4.38.4l-17.11,30.04,20.59-28.55s1.99-2.49,1.29-2.69c-.7-.2-12.43-.99-12.43-1.09h0Z"/><path d="M137.44,244.71s-17.24,31.83-54.64,47.48c0,0,16.45.53,64.99-40.32l-8.49-2.39-1.86-4.77h0Z"/><path d="M256.27,275.48c-14.85-9.55-9.55-1.86-9.55-1.86,0,0,20.16,17.77,35.28,42.71,0,0-10.88-31.3-25.73-40.85h0Z"/><path d="M367.19,285.84c-14.1-10.63-9.38-2.57-9.38-2.57,0,0,18.77,19.23,31.99,45.22,0,0-8.5-32.03-22.6-42.66h0Z"/><path d="M406.67,301.21s28.12,9.81,37.4,16.18c0,0-17.77-15.65-28.91-18.3s-8.49,2.12-8.49,2.12Z"/><path d="M469.47,301.88l-3.98-35.01c-9.55,3.71,3.98,35.01,3.98,35.01Z"/><path d="M501.1,327.21s-4.77-36.34-19.63-53.05c0,0,2.39,30.24,19.63,53.05Z"/><path d="M467.68,331.45s53.32,25.2,54.38,35.54-.53,16.45-.53,16.45c0,0,11.67-10.88,8.22-22.02-3.45-11.14-37.93-25.73-62.07-29.97h0Z"/><path d="M506.14,373.36c-6.63-5.84-81.43-32.89-81.43-32.89,32.36,25.73,81.43,32.89,81.43,32.89h0Z"/><path d="M347.52,442.86c1.86-19.1-9.28-46.68,2.12-67.9,0,0-19.36,11.94-18.57,45.36,0,0-33.69-35.81-61.8-39.26,0,0,79.01,94.62,98.08,140.12-6.5-18.73-21.28-63.38-19.83-78.32h0Z"/><path d="M367.35,521.17c1.81,5.21,2.98,8.42,2.98,8.42-.7-2.56-1.71-5.38-2.98-8.42Z"/><path d="M144.34,298.03c34.48,54.11,101.06,44.83,101.06,44.83-35.54,1.06-101.06-44.83-101.06-44.83h0Z"/><path d="M227.63,403.07s-42.17-27.32-105.04-32.89c0,0,73.47,15.92,105.04,32.89Z"/><path d="M499.24,569.38c-6.37.8-74-1.33-92.84-3.45-18.83-2.12-20.95-17.51-20.95-17.51,0,0-3.45,14.06,7.69,19.1s102.65,17.24,119.1,5.04c16.45-12.2,14.06-26.79,14.06-26.79-6.63,22.28-20.69,22.81-27.06,23.61h0Z"/><path d="M400.09,608.58c-1.32-7.78-4.29-33.37-4.29-33.37-5.57,6.37-6.1,9.55-6.1,9.55-24.67-7.43-45.62-39.26-45.62-39.26,4.77,34.48,44.83,46.42,44.83,46.42,3.18,11.67,12.47,20.16,11.67,18.83-.11-.18-.27-.96-.48-2.18h-.01Z"/><path d="M391.67,648.49c-1.14-7.81-3.51-33.46-3.51-33.46-5.72,6.23-6.32,9.4-6.32,9.4-24.49-8.01-47.06-34.36-47.06-34.36,3.96,34.59,46.09,41.5,46.09,41.5,2.91,11.74,11.99,20.45,11.22,19.1-.1-.18-.25-.97-.43-2.19h.01Z"/><path d="M386.63,685.89c-1.14-7.81-3.51-33.46-3.51-33.46-5.72,6.23-6.32,9.4-6.32,9.4-24.49-8.01-34.59-25.08-34.59-25.08,3.96,34.59,33.62,32.22,33.62,32.22,2.91,11.74,11.99,20.45,11.22,19.1-.1-.18-.25-.97-.43-2.19h.01Z"/><path d="M391.02,767.52s76.39,96.55,82.49,123.08c6.1,26.53.27,1.06.27,1.06l10.88-.27s-58.62-114.59-93.63-123.87h0Z"/><path d="M529.75,866.99c-37.93-9.28-55.7-27.32-55.7-27.32,20.16,31.3,55.7,27.32,55.7,27.32Z"/><path d="M526.83,648.43c-16.18-.8-59.15-2.92-59.15-2.92,33.69,14.85,59.15,2.92,59.15,2.92Z"/><path d="M524.97,691.93c-16.18-.8-59.15-2.92-59.15-2.92,33.69,14.85,59.15,2.92,59.15,2.92Z"/><path d="M525.24,739.67c-16.18-.8-59.15-2.92-59.15-2.92,33.69,14.85,59.15,2.92,59.15,2.92Z"/><path d="M915.82,74.56c-5.84,5.44-17.37,6.37-17.37,6.37,0,0-2.39,4.77,5.3,4.38,7.69-.4,14.32-2.52,20.03-10.48,5.7-7.96.8-20.03.8-20.03,0,0-2.92,14.32-8.75,19.76h-.01Z"/><path d="M851.1,46.7c-1.99,2.65-8.22,13.93-8.62,18.44-.4,4.51-2.12,23.74-2.12,23.74,0,0,8.89,4.24,7.03.66s-.8-16.58.4-24.8c1.19-8.22,4.51-12.6,6.9-17.37,2.39-4.77-.66-10.34-.66-10.34,0,0-.93,7.03-2.92,9.68h-.01Z"/><path d="M826.66,40.78c-2.33,2.54-10.05,13.62-11.06,18.32s-5.34,24.74-5.34,24.74c0,0,8.23,5.61,6.88,1.6s1.47-17.57,3.77-26.08c2.3-8.51,6.19-12.7,9.21-17.42,3.02-4.72.75-10.99.75-10.99,0,0-1.88,7.29-4.21,9.83Z"/><path d="M808.89,33.45c-2.57,2.3-11.34,12.57-12.8,17.15-1.46,4.58-7.74,24.1-7.74,24.1,0,0,7.64,6.39,6.69,2.27s3.18-17.34,6.31-25.59c3.13-8.24,7.4-12.03,10.87-16.44s1.82-10.86,1.82-10.86c0,0-2.58,7.07-5.16,9.37h0Z"/><path d="M896.46,71.9c-3.45-3.45-.13-9.55-.13-9.55l-5.44,7.03s1.19-3.05-2.25-7.16-12.73-5.44-12.73-5.44l5.17,6.37c-2.79-1.99-12.73-3.45-12.73-3.45,2.12,1.33,8.09,9.81,8.09,9.81l-5.3,5.04s1.72-1.59,8.49-3.45c6.76-1.86,9.28,2.92,10.74,5.44,1.46,2.52-3.71,8.49-3.71,8.49,0,0,9.28-.66,20.42-1.99,11.14-1.33,12.86-10.74,12.86-10.74-8.22,8.49-20.03,3.05-23.47-.4h-.01Z"/><path d="M863.04,25.82c-6.07,2.88-5.67,7.66-5.67,7.66,0,0,9.95-10.25,17.9-7.56,0,0-6.17-2.98-12.23-.1h0Z"/><path d="M843.54,17.86c-6.07,2.88-5.67,7.66-5.67,7.66,0,0,9.95-10.25,17.9-7.56,0,0-6.17-2.98-12.23-.1h0Z"/><path d="M825.34,9.01c-6.07,2.88-5.67,7.66-5.67,7.66,0,0,9.95-10.25,17.9-7.56,0,0-6.17-2.98-12.23-.1h0Z"/><path d="M915.16,80.62c.2.5,25.17,29.44,25.17,29.44-7.46-15.02-21.88-31.33-21.88-31.33,0,.1-11.74.9-12.43,1.09-.7.2,1.29,2.69,1.29,2.69l20.59,28.55-17.11-30.04s4.18-.9,4.38-.4h-.01Z"/><path d="M940.09,244.71l-1.86,4.77-8.49,2.39c48.54,40.85,64.99,40.32,64.99,40.32-37.4-15.65-54.64-47.48-54.64-47.48Z"/><path d="M821.26,275.48c-14.85,9.55-25.73,40.85-25.73,40.85,15.12-24.93,35.28-42.71,35.28-42.71,0,0,5.3-7.69-9.55,1.86Z"/><path d="M710.34,285.84c-14.1,10.63-22.6,42.66-22.6,42.66,13.21-25.99,31.99-45.22,31.99-45.22,0,0,4.71-8.07-9.38,2.57h-.01Z"/><path d="M662.37,299.09c-11.14,2.65-28.91,18.3-28.91,18.3,9.28-6.37,37.4-16.18,37.4-16.18,0,0,2.65-4.77-8.49-2.12h0Z"/><path d="M611.64,267.26l-3.98,35.01s13.53-31.3,3.98-35.01Z"/><path d="M596.06,274.16c-14.85,16.71-19.63,53.05-19.63,53.05,17.24-22.81,19.63-53.05,19.63-53.05Z"/><path d="M547.78,361.42c-3.45,11.14,8.22,22.02,8.22,22.02,0,0-1.59-6.1-.53-16.45,1.06-10.34,54.38-35.54,54.38-35.54-24.14,4.24-58.62,18.83-62.07,29.97h0Z"/><path d="M652.82,340.47s-74.8,27.06-81.43,32.89c0,0,49.07-7.16,81.43-32.89h0Z"/><path d="M707,521.17c-1.27,3.04-2.28,5.86-2.98,8.42,0,0,1.17-3.21,2.98-8.42Z"/><path d="M743.27,420.31c.8-33.42-18.57-45.36-18.57-45.36,11.41,21.22.27,48.81,2.12,67.9,1.45,14.94-13.33,59.58-19.83,78.32,19.07-45.5,98.08-140.12,98.08-140.12-28.12,3.45-61.8,39.26-61.8,39.26Z"/><path d="M832.13,342.86s66.58,9.28,101.06-44.83c0,0-65.52,45.89-101.06,44.83h0Z"/><path d="M954.94,370.18c-62.86,5.57-105.04,32.89-105.04,32.89,31.56-16.98,105.04-32.89,105.04-32.89h0Z"/><path d="M671.13,565.93c-18.83,2.12-86.47,4.24-92.84,3.45-6.37-.8-20.42-1.33-27.06-23.61,0,0-2.39,14.59,14.06,26.79,16.45,12.2,107.96,0,119.1-5.04,11.14-5.04,7.69-19.1,7.69-19.1,0,0-2.12,15.38-20.95,17.51h0Z"/><path d="M687.84,584.77s-.53-3.18-6.1-9.55c0,0-2.98,25.59-4.29,33.37-.21,1.22-.37,2-.48,2.18-.8,1.33,8.49-7.16,11.67-18.83,0,0,40.05-11.94,44.83-46.42,0,0-20.95,31.83-45.62,39.26h-.01Z"/><path d="M695.69,624.43s-.61-3.17-6.32-9.4c0,0-2.37,25.65-3.51,33.46-.18,1.22-.32,2-.43,2.19-.76,1.34,8.32-7.36,11.22-19.1,0,0,42.13-6.91,46.09-41.5,0,0-22.57,26.35-47.06,34.36h.01Z"/><path d="M700.73,661.83s-.61-3.17-6.32-9.4c0,0-2.37,25.65-3.51,33.46-.18,1.22-.32,2-.43,2.19-.76,1.34,8.32-7.36,11.22-19.1,0,0,29.66,2.37,33.62-32.22,0,0-10.1,17.07-34.59,25.08h.01Z"/><path d="M592.88,891.39l10.88.27s-5.84,25.46.27-1.06c6.1-26.53,82.49-123.08,82.49-123.08-35.01,9.28-93.63,123.87-93.63,123.87h-.01Z"/><path d="M603.49,839.67s-17.77,18.04-55.7,27.32c0,0,35.54,3.98,55.7-27.32Z"/><path d="M609.85,645.51s-42.97,2.12-59.15,2.92c0,0,25.46,11.94,59.15-2.92Z"/><path d="M611.71,689.01s-42.97,2.12-59.15,2.92c0,0,25.46,11.94,59.15-2.92Z"/><path d="M611.44,736.75s-42.97,2.12-59.15,2.92c0,0,25.46,11.94,59.15-2.92Z"/><path d="M538.77,886.22s-97.88,19.1-177.85-41.78l-4.77,35.81s50.13,30.64,89.52,36.6c39.39,5.97,93.1,5.97,93.1,5.97,0,0,53.71,0,93.1-5.97,39.39-5.97,89.52-36.6,89.52-36.6l-4.77-35.81c-79.97,60.87-177.85,41.78-177.85,41.78h0Z" style="fill:#fff;"/><path d="M717.84,841.51c-1.04-.44-2.25-.28-3.15.41-47.74,36.34-101.89,43.97-138.91,43.97-21.85,0-36.26-2.75-36.4-2.78-.4-.08-.82-.08-1.22,0-.14.03-14.56,2.78-36.4,2.78-37.02,0-91.17-7.63-138.91-43.97-.9-.69-2.1-.84-3.15-.41-1.05.44-1.78,1.39-1.93,2.52l-4.77,35.81c-.17,1.25.42,2.48,1.5,3.14,2.07,1.26,51.13,31.04,90.7,37.04,39.17,5.94,93.04,6,93.58,6s54.41-.07,93.58-6c39.57-6,88.63-35.77,90.7-37.04,1.08-.66,1.66-1.89,1.5-3.14l-4.77-35.81c-.15-1.12-.89-2.08-1.93-2.52h-.02ZM631.39,913.72c-38.69,5.86-92.08,5.93-92.63,5.93s-53.93-.07-92.63-5.93c-34.19-5.18-77.36-29.71-86.57-35.12l3.78-28.38c48.05,34.63,101.52,42.03,138.4,42.03,20.22,0,33.98-2.24,37.01-2.78,3.03.54,16.79,2.78,37.01,2.78,36.88,0,90.35-7.4,138.4-42.03l3.78,28.38c-9.2,5.41-52.36,29.94-86.57,35.12h.02Z"/><path d="M575.78,897.02c-19.07,0-32.61-1.98-37.01-2.72-4.4.74-17.94,2.71-37.01,2.72-35.94,0-87.36-6.9-134.7-38.43l-2.33,17.48c12.89,7.39,51.35,28.26,82.13,32.93,38.32,5.81,91.36,5.88,91.91,5.88s53.59-.07,91.91-5.88c30.73-4.66,69.23-25.54,82.13-32.93l-2.33-17.48c-47.34,31.53-98.76,38.43-134.7,38.43h0Z"/><path d="M434.79,146.04c-1.59,2.92-3.18,32.89,4.77,43.5,7.96,10.61.53,19.63,6.37,23.87,5.84,4.24,13.79-.8,13.79-.8l-3.45-58.89s-19.89-10.61-21.49-7.69h.01Z" style="fill:#fff;"/><path d="M457.77,150.92c-2.68-1.43-16.35-8.57-21.67-8.57-2.54,0-3.66,1.36-4.11,2.17-2.15,3.94-3.62,35.41,5.02,46.94,3.63,4.84,3.47,9.14,3.31,13.3-.15,3.89-.32,8.29,3.73,11.24,2.11,1.53,4.58,2.31,7.36,2.31,5.14,0,9.53-2.68,10.01-2.99.98-.62,1.54-1.72,1.47-2.88l-3.45-58.89c-.06-1.11-.7-2.1-1.68-2.62h.01ZM451.41,211.93c-1.42,0-2.6-.36-3.61-1.09-1.2-.87-1.25-2.22-1.12-5.85.17-4.52.41-10.71-4.58-17.36-6.4-8.53-5.87-32.31-4.83-38.74,3.19.74,10.03,3.78,15.92,6.83l3.22,55.03c-1.26.55-3.11,1.19-5.01,1.19h0Z"/><path d="M590.89,57.45c-11.54-7.56-35.41-7.96-52.12-7.96s-40.58.4-52.12,7.96c-11.54,7.56-36.21,33.42-38.59,47.35-2.39,13.93.4,46.55,2.39,53.32,1.99,6.76-1.19,14.32,1.59,28.65,2.79,14.32.8,27.85.8,33.02s-.27,15.38,14.85,31.3c15.12,15.92,34.75,24.93,39.52,32.36,4.77,7.43,18.3,7.43,31.56,7.43s26.79,0,31.56-7.43,24.4-16.45,39.52-32.36c15.12-15.92,14.85-26.13,14.85-31.3s-1.99-18.7.8-33.02c2.79-14.32-.4-21.88,1.59-28.65,1.99-6.76,4.77-39.39,2.39-53.32-2.39-13.93-27.06-39.79-38.59-47.35Z" style="fill:#fff;"/><path d="M592.63,54.78c-11.37-7.45-32.61-8.48-53.87-8.48s-42.49,1.03-53.87,8.48c-12.15,7.96-37.39,34.32-39.99,49.47-2.39,13.97.24,47.16,2.47,54.75.74,2.53.61,5.43.43,9.1-.23,4.9-.52,11,1.09,19.26,2.06,10.61,1.41,20.71.98,27.38-.13,2.09-.24,3.73-.24,5.03v.26c0,5.41-.01,16.66,15.73,33.23,8.29,8.73,17.89,15.43,25.6,20.81,6.26,4.37,11.67,8.14,13.55,11.08,5.71,8.89,20.22,8.89,34.24,8.89s28.53,0,34.24-8.89c1.89-2.93,7.29-6.71,13.55-11.08,7.71-5.38,17.31-12.08,25.6-20.81,15.74-16.57,15.73-27.82,15.73-33.23v-.26c0-1.3-.11-2.95-.24-5.03-.43-6.68-1.08-16.77.98-27.38,1.61-8.26,1.32-14.36,1.09-19.26-.17-3.67-.31-6.57.43-9.1,2.23-7.59,4.86-40.79,2.47-54.75-2.6-15.15-27.84-41.51-39.99-49.47h.02ZM624.04,157.21c-1.04,3.55-.88,7.09-.68,11.19.23,4.8.48,10.23-.98,17.74-2.22,11.42-1.51,22.43-1.08,29.01.12,1.89.23,3.53.23,4.62v.27c0,4.93.01,14.12-13.98,28.84-7.85,8.26-17.15,14.76-24.63,19.97-7.09,4.95-12.7,8.86-15.27,12.86-3.83,5.96-16.57,5.96-28.89,5.96s-25.05,0-28.89-5.96c-2.57-3.99-8.17-7.9-15.27-12.86-7.48-5.22-16.78-11.71-24.63-19.97-13.99-14.73-13.98-23.91-13.98-28.84v-.27c0-1.09.11-2.73.23-4.62.43-6.58,1.14-17.59-1.08-29.01-1.46-7.51-1.2-12.94-.98-17.74.19-4.1.36-7.64-.68-11.19-1.82-6.19-4.65-38.2-2.3-51.88,2.16-12.62,26.28-38.07,37.2-45.22,11.35-7.44,37.71-7.44,50.38-7.44s39.03,0,50.38,7.44c10.92,7.16,35.04,32.61,37.2,45.22,2.35,13.68-.48,45.69-2.3,51.88Z"/><path d="M440.49,156.52c3.58.8,9.55,11.14,9.55,11.14,0,0,1.99-3.78-.2-8.16s-9.35-2.98-9.35-2.98h0Z"/><path d="M628.92,159.5c-2.19,4.38-.2,8.16-.2,8.16,0,0,5.97-10.34,9.55-11.14,0,0-7.16-1.39-9.35,2.98Z"/><path d="M96.33,181.58c-26.26,38.2-20.69,86.74-20.69,86.74,0-50.93,39.79-99.47,39.79-99.47l-17.51,19.1-1.59-6.37Z"/><path d="M988.62,187.95l-17.51-19.1s39.79,48.54,39.79,99.47c0,0,5.57-48.54-20.69-86.74l-1.59,6.37h0Z"/><path d="M538.77,538.08s11.14-73.74,0-114.59c0,0-2.65,65.78,0,114.59Z"/><path d="M542.48,671.24c0-12.73,3.18-29.18,3.18-29.18-4.24-11.14-6.9-63.66-6.9-63.66,0,0-2.65,52.52-6.9,63.66,0,0,3.18,16.45,3.18,29.18s-4.24,19.63-4.24,19.63c0,0,5.3,16.98,5.3,24.93s-2.12,20.69-2.12,20.69c0,0,4.77,14.32,4.77,20.69,0-6.37,4.77-20.69,4.77-20.69,0,0-2.12-12.73-2.12-20.69s5.31-24.93,5.31-24.93c0,0-4.24-6.9-4.24-19.63h.01Z"/><path d="M538.77,599.35c-93.9,0-105.44,89.92-105.44,89.92,0,0,23.47-79.58,106.23-79.58s110.21,74.4,110.21,74.4c0,0-17.11-84.75-111.01-84.75h.01Z"/><path d="M492.35,225.09l24.4,19.63c22.28,11.14,46.15,1.59,46.15,1.59l24.93-22.28c-44.56,24.93-95.49,1.06-95.49,1.06h0Z" style="fill:#fff;"/><path d="M510.02,73.9l-.3-.93s-6.05-7.57.3.93Z"/><path d="M636.64,86.09c-7.56-35.01-37.4-35.41-37.4-35.41,2.39-6.76-3.98-24.67-3.98-24.67-4.77,10.74-26.26,11.54-26.26,11.54l9.55-14.72c-37-4.38-42.97,8.36-42.97,8.36v-14.72c-27.85,0-29.84,19.5-29.84,19.5-5.97-1.99-13.53-13.53-13.53-13.53-12.33,7.16-12.33,22.68-12.33,22.68-27.85,8.75-44.56,45.36-44.56,45.36l8.75-.4c-11.54,22.68.8,49.73,1.19,54.51.4,4.77,5.97,40.58,5.97,40.58,0,0,7.16-15.12,6.23-29.04-.93-13.93,5.3-16.31,5.3-16.31,0,0-3.18-13.53-4.38-29.04-1.19-15.52,9.55-25.07,25.86-19.89,16.31,5.17,30.24-3.18,30.24-3.18l-4.47-13.79c-6.36-8.5-.3-.93-.3-.93l.3.93c.16.21.32.43.49.66,7.16,9.55,25.86,16.31,25.86,16.31l12.73-8.75-.4,7.56c11.14-3.98,23.47-17.11,23.47-17.11,1.19,5.97-5.57,15.12-5.57,15.12,21.49,6.37,35.41-9.95,47.35,2.79,11.94,12.73.8,44.16.8,44.16,5.97-.4,5.97,20.29,3.98,25.46-1.99,5.17,5.97,21.88,5.97,21.88,0,0,1.19-22.68,3.18-27.06s9.55-35.01,9.55-48.14-5.57-21.09-5.57-21.09l4.77.4.02-.02Z"/></svg>